# xmcd
#
# Track frame offsets: 
#        150
#        13894
#        32052
#        47654
#        65687
#        81470
#        108463
#        127568
#        145906
#        161038
#        175905
#        190100
#        211232
#        227450
#
# Disc length: 3263 seconds
#
# Revision: 0
# Processed by: cddbd v1.5.2PL0 Copyright (c) Steve Scherf et al.
# Submitted via: ExactAudioCopy v0.95b4
#
DISCID=bb0cbd0e
DTITLE=Shrimp City Slim (Gary Erwin) with Blue Light Special - Gone Wi
DTITLE=th The Wind
DYEAR=1992
DGENRE=Blues
TTITLE0=Fool For You
TTITLE1=Ain't No Future In This Town
TTITLE2=Get Ready (To Fall In Love)
TTITLE3=In My Sights
TTITLE4=The Saddle
TTITLE5=Gone With The Wind
TTITLE6=God Is Calling
TTITLE7=Amazing Grace
TTITLE8=Rockin' In My Baby's Arms
TTITLE9=Wedding Band Blues
TTITLE10=Don't Tell Me (Not To Tell You I Really Love You)
TTITLE11=Tommy's House
TTITLE12=Phosphate Woman
TTITLE13=Sticky Fingers
EXTD=
EXTT0=
EXTT1=
EXTT2=
EXTT3=
EXTT4=
EXTT5=
EXTT6=
EXTT7=
EXTT8=
EXTT9=
EXTT10=
EXTT11=
EXTT12=
EXTT13=
PLAYORDER=
